<?xml version="1.0" encoding="iso-8859-1"?>
<!-- Generator: Adobe Illustrator 19.0.0, SVG Export Plug-In . SVG Version: 6.00 Build 0)  -->
<svg version="1.1" id="Layer_1" xmlns="http://www.w3.org/2000/svg" xmlns:xlink="http://www.w3.org/1999/xlink" x="0px" y="0px"
	 viewBox="0 0 512 512" style="enable-background:new 0 0 512 512;" xml:space="preserve">
<g>
	<path style="fill:#2D527C;" d="M476.35,410.665h-0.185c-19.658,0-35.651-15.993-35.651-35.65v-238.03
		c0-19.658,15.993-35.65,35.651-35.65h0.185c19.658,0,35.65,15.993,35.65,35.65v238.03C512,394.673,496.008,410.665,476.35,410.665z
		 M476.167,127.536c-5.211,0-9.45,4.238-9.45,9.448v238.03c0,5.21,4.238,9.448,9.45,9.448h0.185c5.21,0,9.448-4.238,9.448-9.448
		V136.985c0-5.21-4.238-9.448-9.448-9.448L476.167,127.536L476.167,127.536z"/>
	<path style="fill:#2D527C;" d="M35.651,410.665C15.993,410.665,0,394.673,0,375.015V180.961c0-19.658,15.992-35.65,35.65-35.65
		s35.651,15.993,35.651,35.65v194.054C71.301,394.673,55.309,410.665,35.651,410.665z M35.651,171.511
		c-5.211,0-9.45,4.238-9.45,9.448v194.054c0,5.21,4.238,9.448,9.448,9.448h0.001c5.21,0,9.448-4.238,9.448-9.448V180.961
		C45.099,175.75,40.86,171.511,35.651,171.511z"/>
	<path style="fill:#2D527C;" d="M453.616,339.542H176.741c-7.234,0-13.101-5.865-13.101-13.101s5.867-13.101,13.101-13.101h263.774
		v-38.75H71.301v38.75h49.981c7.234,0,13.101,5.865,13.101,13.101s-5.867,13.101-13.101,13.101H58.2
		c-7.234,0-13.101-5.865-13.101-13.101V261.49c0-7.236,5.867-13.101,13.101-13.101h395.416c7.234,0,13.101,5.865,13.101,13.101
		v64.951C466.717,333.677,460.851,339.542,453.616,339.542z"/>
</g>
<path style="fill:#CEE8FA;" d="M354.91,249.52c0,6.484,5.306,11.791,11.791,11.791h71.263c6.485,0,11.791-5.307,11.791-11.791
	v-59.471c0-6.485-5.306-11.791-11.791-11.791H366.7c-6.485,0-11.791,5.306-11.791,11.791v59.471H354.91z"/>
<path style="fill:#2D527C;" d="M437.963,274.411H366.7c-13.726,0-24.892-11.166-24.892-24.892v-59.472
	c0-13.726,11.166-24.892,24.892-24.892h71.263c13.726,0,24.892,11.166,24.892,24.892v59.472
	C462.855,263.245,451.688,274.411,437.963,274.411z M368.01,248.21h68.643v-56.852H368.01V248.21z"/>
<path style="fill:#CEE8FA;" d="M58.2,197.909h215.141c16.269,0,29.579,13.31,29.579,29.579v20.723
	c0,6.485-5.306,11.791-11.791,11.791H58.2V197.909z"/>
<path style="fill:#2D527C;" d="M291.13,273.101H58.2c-7.234,0-13.101-5.865-13.101-13.101v-62.092
	c0-7.236,5.867-13.101,13.101-13.101h215.141c23.534,0,42.68,19.145,42.68,42.68v20.723
	C316.021,261.935,304.854,273.101,291.13,273.101z M71.301,246.9H289.82v-19.413c0-9.087-7.393-16.478-16.478-16.478H71.301V246.9z"
	/>
<g>
</g>
<g>
</g>
<g>
</g>
<g>
</g>
<g>
</g>
<g>
</g>
<g>
</g>
<g>
</g>
<g>
</g>
<g>
</g>
<g>
</g>
<g>
</g>
<g>
</g>
<g>
</g>
<g>
</g>
</svg>
