<?xml version="1.0" encoding="iso-8859-1"?>
<!-- Generator: Adobe Illustrator 19.0.0, SVG Export Plug-In . SVG Version: 6.00 Build 0)  -->
<svg version="1.1" id="Layer_1" xmlns="http://www.w3.org/2000/svg" xmlns:xlink="http://www.w3.org/1999/xlink" x="0px" y="0px"
	 viewBox="0 0 512 512" style="enable-background:new 0 0 512 512;" xml:space="preserve">
<path style="fill:#2D527C;" d="M255.998,512c-106.805,0-193.699-86.894-193.699-193.699c0-39.899,13.487-78.665,39.006-112.106
	c21.703-28.44,51.321-51.473,84.191-65.638l0.13-68.776c0.016-7.982,6.491-14.442,14.47-14.442c0.01,0,0.019,0,0.029,0
	c7.992,0.014,14.457,6.506,14.442,14.497l-0.149,78.533c-0.012,6.032-3.765,11.425-9.418,13.532
	c-66.98,24.952-113.76,88.443-113.76,154.399c0,90.85,73.911,164.76,164.76,164.76s164.76-73.911,164.76-164.76
	c0-65.697-46.565-129.108-113.236-154.204c-5.594-2.105-9.317-7.433-9.373-13.411l-0.718-78.746
	c-0.072-7.992,6.348-14.529,14.338-14.601c0.043,0,0.09,0,0.135,0c7.929,0,14.393,6.391,14.467,14.338l0.629,69.097
	c32.759,14.228,62.272,37.28,83.877,65.682c25.397,33.387,38.821,72.062,38.821,111.844C449.697,425.106,362.804,512,255.998,512z"
	/>
<path style="fill:#CEE8FA;" d="M426.178,264.789H85.814c-5.828,16.854-9.045,34.774-9.045,53.36
	c0,98.986,80.246,179.229,179.229,179.229c98.987,0,179.229-80.245,179.229-179.229
	C435.228,299.563,432.008,281.642,426.178,264.789z M366.959,362.881c-14.012,0-25.371-11.359-25.371-25.373
	c0-14.013,11.359-25.371,25.371-25.371s25.373,11.359,25.373,25.371C392.332,351.522,380.973,362.881,366.959,362.881z"/>
<g>
	<path style="fill:#2D527C;" d="M255.998,511.848c-106.805,0-193.699-86.894-193.699-193.699c0-19.661,3.311-39.206,9.839-58.089
		c2.017-5.83,7.507-9.741,13.675-9.741h340.364c6.168,0,11.658,3.91,13.674,9.738c6.535,18.882,9.847,38.426,9.847,58.092
		C449.697,424.954,362.804,511.848,255.998,511.848z M96.478,279.259c-3.48,12.762-5.241,25.804-5.241,38.89
		c0,90.85,73.911,164.76,164.76,164.76s164.76-73.911,164.76-164.76c0-13.088-1.761-26.128-5.244-38.89L96.478,279.259
		L96.478,279.259z M366.959,377.35c-21.969,0-39.841-17.873-39.841-39.842c0-21.969,17.873-39.841,39.841-39.841
		c21.968,0,39.842,17.873,39.842,39.841C406.803,359.477,388.929,377.35,366.959,377.35z M366.959,326.607
		c-6.011,0-10.901,4.891-10.901,10.901c0,6.012,4.891,10.903,10.901,10.903c6.012,0,10.903-4.891,10.903-10.903
		C377.864,331.497,372.973,326.607,366.959,326.607z"/>
	<circle style="fill:#2D527C;" cx="313.879" cy="397.96" r="10.901"/>
	<path style="fill:#2D527C;" d="M313.877,423.337c-13.989,0-25.371-11.382-25.371-25.373s11.382-25.371,25.371-25.371
		s25.371,11.382,25.371,25.371C339.248,411.953,327.867,423.337,313.877,423.337z M313.877,394.397c-1.966,0-3.568,1.6-3.568,3.567
		c0,1.968,1.6,3.568,3.568,3.568s3.568-1.6,3.568-3.568C317.445,395.998,315.844,394.397,313.877,394.397z"/>
	<path style="fill:#2D527C;" d="M350.047,28.939H161.948c-7.992,0-14.47-6.478-14.47-14.47S153.956,0,161.948,0h188.099
		c7.99,0,14.47,6.478,14.47,14.47S358.037,28.939,350.047,28.939z"/>
</g>
<g>
</g>
<g>
</g>
<g>
</g>
<g>
</g>
<g>
</g>
<g>
</g>
<g>
</g>
<g>
</g>
<g>
</g>
<g>
</g>
<g>
</g>
<g>
</g>
<g>
</g>
<g>
</g>
<g>
</g>
</svg>
