<?xml version="1.0" encoding="iso-8859-1"?>
<!-- Generator: Adobe Illustrator 19.0.0, SVG Export Plug-In . SVG Version: 6.00 Build 0)  -->
<svg version="1.1" id="Layer_1" xmlns="http://www.w3.org/2000/svg" xmlns:xlink="http://www.w3.org/1999/xlink" x="0px" y="0px"
	 viewBox="0 0 512.001 512.001" style="enable-background:new 0 0 512.001 512.001;" xml:space="preserve">
<path style="fill:#CEE8FA;" d="M190.978,163.048c-3.204,9.266-4.973,19.119-4.973,29.337c0,54.422,44.118,98.54,98.54,98.54
	s98.54-44.118,98.54-98.54c0-10.219-1.77-20.07-4.975-29.337H190.978L190.978,163.048z"/>
<g>
	<path style="fill:#2D527C;" d="M284.544,305.589c-62.42,0-113.204-50.784-113.204-113.204c0-11.558,1.944-23.041,5.778-34.127
		c2.044-5.908,7.608-9.872,13.859-9.872h187.13c6.251,0,11.815,3.962,13.859,9.869c3.836,11.09,5.78,22.574,5.78,34.13
		C397.746,254.804,346.964,305.589,284.544,305.589z M202.142,177.712c-0.98,4.849-1.472,9.754-1.472,14.673
		c0,46.25,37.626,83.876,83.876,83.876c46.248,0,83.875-37.626,83.875-83.876c0-4.918-0.494-9.823-1.474-14.673H202.142z"/>
	<path style="fill:#2D527C;" d="M284.544,307.26c-63.767,0-115.647-51.879-115.647-115.647c0-23.92,8.061-47.127,23.311-67.114
		c12.029-15.764,28.152-28.734,46.118-37.24l0.057-19.736c0.023-8.084,6.584-14.623,14.664-14.623c0.015,0,0.028,0,0.043,0
		c8.099,0.023,14.645,6.608,14.621,14.705l-0.085,29.416c-0.018,6.109-3.82,11.567-9.545,13.7
		c-35.243,13.13-59.857,46.394-59.857,80.892c0,47.596,38.723,86.319,86.319,86.319s86.319-38.723,86.319-86.319
		c0-34.363-24.502-67.584-59.584-80.789c-5.646-2.125-9.414-7.492-9.496-13.525l-0.405-29.536
		c-0.111-8.097,6.364-14.753,14.462-14.863c8.102-0.128,14.752,6.364,14.863,14.462l0.274,19.971
		c41.78,19.663,69.214,60.43,69.214,104.278C400.191,255.38,348.311,307.26,284.544,307.26z"/>
	<path style="fill:#2D527C;" d="M345.688,30.689H223.4c-8.099,0-14.664-6.566-14.664-14.664S215.301,1.361,223.4,1.361h122.288
		c8.099,0,14.664,6.566,14.664,14.664S353.787,30.689,345.688,30.689z"/>
	<path style="fill:#2D527C;" d="M240.611,442.154c-3.753,0-7.506-1.433-10.369-4.295c-5.726-5.726-5.726-15.011,0-20.739
		l87.866-87.866c5.726-5.725,15.011-5.725,20.739,0c5.726,5.726,5.726,15.011,0,20.739l-87.866,87.866
		C248.117,440.722,244.363,442.154,240.611,442.154z"/>
	<path style="fill:#2D527C;" d="M328.477,442.154c-3.753,0-7.506-1.433-10.369-4.295l-87.866-87.866
		c-5.726-5.726-5.726-15.011,0-20.739c5.726-5.725,15.011-5.725,20.739,0l87.866,87.866c5.726,5.726,5.726,15.011,0,20.739
		C335.983,440.722,332.229,442.154,328.477,442.154z"/>
	<path style="fill:#2D527C;" d="M65.932,447.852c-8.099,0-14.664-6.566-14.664-14.664V128.363c0-33.646,27.373-61.021,61.021-61.021
		h70.39c8.099,0,14.664,6.566,14.664,14.664s-6.565,14.664-14.664,14.664h-70.39c-17.475,0-31.693,14.217-31.693,31.693v304.824
		C80.596,441.285,74.031,447.852,65.932,447.852z"/>
</g>
<path style="fill:#CEE8FA;" d="M464.955,495.975H47.045c-17.809,0-32.381-14.572-32.381-32.381l0,0
	c0-17.809,14.572-32.381,32.381-32.381h417.911c17.809,0,32.381,14.572,32.381,32.381l0,0
	C497.336,481.404,482.765,495.975,464.955,495.975z"/>
<path style="fill:#2D527C;" d="M464.955,510.639H47.045C21.104,510.639,0,489.535,0,463.594s21.104-47.045,47.045-47.045h417.911
	c25.94,0,47.045,21.104,47.045,47.045S490.896,510.639,464.955,510.639z M47.045,445.878c-9.769,0-17.717,7.948-17.717,17.717
	s7.948,17.717,17.717,17.717h417.911c9.769,0,17.717-7.948,17.717-17.717s-7.948-17.717-17.717-17.717H47.045z"/>
<g>
</g>
<g>
</g>
<g>
</g>
<g>
</g>
<g>
</g>
<g>
</g>
<g>
</g>
<g>
</g>
<g>
</g>
<g>
</g>
<g>
</g>
<g>
</g>
<g>
</g>
<g>
</g>
<g>
</g>
</svg>
