<?xml version="1.0" encoding="iso-8859-1"?>
<!-- Generator: Adobe Illustrator 19.0.0, SVG Export Plug-In . SVG Version: 6.00 Build 0)  -->
<svg version="1.1" id="Layer_1" xmlns="http://www.w3.org/2000/svg" xmlns:xlink="http://www.w3.org/1999/xlink" x="0px" y="0px"
	 viewBox="0 0 512 512" style="enable-background:new 0 0 512 512;" xml:space="preserve">
<path style="fill:#2D527C;" d="M457.447,512H54.551c-29.362,0-53.25-23.888-53.25-53.25V152.128c0-29.362,23.888-53.25,53.25-53.25
	h402.895c29.364,0,53.252,23.888,53.252,53.25v17.278c0,8.071-6.545,14.617-14.617,14.617s-14.617-6.545-14.617-14.617v-17.278
	c0-13.243-10.774-24.017-24.018-24.017H54.551c-13.243,0-24.017,10.774-24.017,24.017V458.75c0,13.243,10.774,24.017,24.017,24.017
	h402.895c13.243,0,24.017-10.774,24.017-24.017l0.001-214.703c0-8.071,6.545-14.617,14.617-14.617s14.617,6.545,14.617,14.617
	l-0.001,214.703C510.695,488.112,486.809,512,457.447,512z"/>
<circle style="fill:#CEE8FA;" cx="255.999" cy="305.45" r="118.78"/>
<g>
	<path style="fill:#2D527C;" d="M255.998,438.834c-73.553,0-133.392-59.84-133.392-133.394s59.84-133.395,133.392-133.395
		c73.554,0,133.394,59.84,133.394,133.395C389.392,378.993,329.553,438.834,255.998,438.834z M255.998,201.279
		c-57.434,0-104.159,46.727-104.159,104.162c0,57.434,46.725,104.16,104.159,104.16s104.16-46.727,104.16-104.16
		C360.159,248.005,313.432,201.279,255.998,201.279z"/>
	<path style="fill:#2D527C;" d="M255.998,367.316c-8.073,0-14.617-6.545-14.617-14.617v-94.521c0-8.071,6.544-14.617,14.617-14.617
		c8.073,0,14.617,6.545,14.617,14.617v94.521C270.615,360.771,264.071,367.316,255.998,367.316z"/>
	<path style="fill:#2D527C;" d="M303.259,320.056h-94.521c-8.073,0-14.617-6.545-14.617-14.617s6.544-14.617,14.617-14.617h94.521
		c8.071,0,14.617,6.545,14.617,14.617S311.332,320.056,303.259,320.056z"/>
	<path style="fill:#2D527C;" d="M340.219,125.916c-0.01,0-0.02,0-0.031,0c-8.073-0.018-14.604-6.575-14.586-14.647l0.132-62.739
		c0.022-5.038-1.909-9.755-5.435-13.31c-3.524-3.556-8.223-5.525-13.231-5.547l-101.674-0.438
		c-10.312-0.095-18.781,8.327-18.825,18.664l-0.304,55.818c-0.044,8.045-6.579,14.536-14.615,14.536c-0.028,0-0.054,0-0.08,0
		c-8.073-0.044-14.582-6.623-14.538-14.697l0.304-55.801C157.449,21.387,178.951,0,205.311,0c0.069,0,0.139,0,0.208,0l101.674,0.439
		c26.455,0.113,47.886,21.728,47.773,48.184l-0.132,62.706C354.818,119.391,348.276,125.916,340.219,125.916z"/>
	<path style="fill:#2D527C;" d="M433.095,124.652h-91.092c-8.071,0-14.617-6.545-14.617-14.617V65.477
		c0-8.071,6.545-14.617,14.617-14.617h65.026c22.434,0,40.683,18.249,40.683,40.683v18.492
		C447.712,118.108,441.165,124.652,433.095,124.652z M356.618,95.418h61.858v-3.875c0-6.313-5.136-11.449-11.449-11.449h-50.409
		V95.418z"/>
	<path style="fill:#2D527C;" d="M169.994,124.652H78.902c-8.073,0-14.617-6.545-14.617-14.617V91.543
		c0-22.434,18.25-40.683,40.683-40.683h65.026c8.073,0,14.617,6.545,14.617,14.617v44.558
		C184.611,118.108,178.067,124.652,169.994,124.652z M93.519,95.418h61.858V80.094h-50.409c-6.313,0-11.449,5.136-11.449,11.449
		V95.418z"/>
</g>
<g>
</g>
<g>
</g>
<g>
</g>
<g>
</g>
<g>
</g>
<g>
</g>
<g>
</g>
<g>
</g>
<g>
</g>
<g>
</g>
<g>
</g>
<g>
</g>
<g>
</g>
<g>
</g>
<g>
</g>
</svg>
