<?xml version="1.0" encoding="iso-8859-1"?>
<!-- Generator: Adobe Illustrator 19.0.0, SVG Export Plug-In . SVG Version: 6.00 Build 0)  -->
<svg version="1.1" id="Layer_1" xmlns="http://www.w3.org/2000/svg" xmlns:xlink="http://www.w3.org/1999/xlink" x="0px" y="0px"
	 viewBox="0 0 512 512" style="enable-background:new 0 0 512 512;" xml:space="preserve">
<path style="fill:#CEE8FA;" d="M250.826,404.478h-52.314c-36.135,0-65.43-29.294-65.43-65.43c0-36.135,29.294-65.43,65.43-65.43
	h52.314V404.478L250.826,404.478z"/>
<g>
	<path style="fill:#2D527C;" d="M250.826,419.714h-52.314c-44.48,0-80.668-36.187-80.668-80.668s36.189-80.668,80.668-80.668h52.314
		c8.416,0,15.238,6.824,15.238,15.238v130.862C266.064,412.892,259.242,419.714,250.826,419.714z M198.512,288.853
		c-27.677,0-50.192,22.516-50.192,50.192c0,27.677,22.516,50.192,50.192,50.192h37.076V288.852h-37.076V288.853z"/>
	<path style="fill:#2D527C;" d="M314.073,419.714H197.925c-44.48,0-80.668-36.189-80.668-80.668s36.189-80.668,80.668-80.668
		h116.147c44.481,0,80.668,36.189,80.668,80.668S358.554,419.714,314.073,419.714z M197.925,288.853
		c-27.677,0-50.192,22.516-50.192,50.192c0,27.677,22.516,50.192,50.192,50.192h116.147c27.677,0,50.192-22.516,50.192-50.192
		c0-27.677-22.516-50.192-50.192-50.192L197.925,288.853L197.925,288.853z"/>
	<path style="fill:#2D527C;" d="M401.575,512H110.423c-37.362,0-67.757-30.395-67.757-67.757V244.524
		c0-35.063,26.773-63.99,60.949-67.417v-7.948c0-8.414,6.822-15.238,15.238-15.238s15.238,6.824,15.238,15.238v22.846
		c0,8.414-6.822,15.238-15.238,15.238h-8.43c-20.558,0-37.281,16.724-37.281,37.281v199.718c0,20.556,16.724,37.281,37.281,37.281
		h291.153c20.558,0,37.281-16.725,37.281-37.281v-83.03c0-8.414,6.822-15.238,15.238-15.238s15.238,6.824,15.238,15.238v83.03
		C469.333,481.605,438.937,512,401.575,512z"/>
	<path style="fill:#2D527C;" d="M454.095,291.047c-8.416,0-15.238-6.824-15.238-15.238v-31.285
		c0-20.556-16.724-37.281-37.281-37.281h-8.43c-8.416,0-15.238-6.824-15.238-15.238v-22.846c0-8.414,6.822-15.238,15.238-15.238
		s15.238,6.824,15.238,15.238v7.948c34.176,3.427,60.949,32.355,60.949,67.417v31.285
		C469.333,284.224,462.511,291.047,454.095,291.047z"/>
</g>
<path style="fill:#CEE8FA;" d="M403.05,109.714H108.948c-26.089,0-47.238-21.149-47.238-47.238l0,0
	c0-26.089,21.149-47.238,47.238-47.238h294.103c26.089,0,47.238,21.149,47.238,47.238l0,0
	C450.288,88.565,429.139,109.714,403.05,109.714z"/>
<path style="fill:#2D527C;" d="M403.05,124.952H108.948c-34.449,0-62.476-28.027-62.476-62.476S74.499,0,108.948,0h294.103
	c34.449,0,62.476,28.027,62.476,62.476S437.499,124.952,403.05,124.952z M108.948,30.476c-17.646,0-32,14.356-32,32s14.354,32,32,32
	h294.103c17.646,0,32-14.356,32-32s-14.354-32-32-32C403.051,30.476,108.948,30.476,108.948,30.476z"/>
<g>
</g>
<g>
</g>
<g>
</g>
<g>
</g>
<g>
</g>
<g>
</g>
<g>
</g>
<g>
</g>
<g>
</g>
<g>
</g>
<g>
</g>
<g>
</g>
<g>
</g>
<g>
</g>
<g>
</g>
</svg>
