<?xml version="1.0" encoding="iso-8859-1"?>
<!-- Generator: Adobe Illustrator 19.0.0, SVG Export Plug-In . SVG Version: 6.00 Build 0)  -->
<svg version="1.1" id="Layer_1" xmlns="http://www.w3.org/2000/svg" xmlns:xlink="http://www.w3.org/1999/xlink" x="0px" y="0px"
	 viewBox="0 0 512 512" style="enable-background:new 0 0 512 512;" xml:space="preserve">
<path style="fill:#2D527C;" d="M256.053,512c-0.027,0-0.053,0-0.079,0c-6.763-0.021-13.069-2.719-17.759-7.596
	c-39.773-41.36-169.551-185.954-169.551-310.12c0-54.899,19.472-104.757,54.832-140.388C157.986,19.14,205.043,0,256,0
	s98.014,19.14,132.504,53.896c35.358,35.631,54.832,85.489,54.832,140.388c0,63.007-31.659,137.534-94.099,221.512
	c-4.632,6.227-13.436,7.525-19.664,2.892c-6.229-4.631-7.525-13.436-2.892-19.664c40.394-54.33,88.547-133.953,88.547-204.742
	c0-96.287-66.965-166.175-159.228-166.175S96.772,97.996,96.772,194.284c0,113.448,127.547,254.722,159.294,288.116
	c7.058-7.325,17.255-18.232,29.192-31.969c5.092-5.859,13.97-6.482,19.826-1.39c5.859,5.092,6.482,13.967,1.391,19.826
	c-13.818,15.902-25.41,28.164-32.701,35.649C269.076,509.342,262.784,512,256.053,512z"/>
<circle style="fill:#CEE8FA;" cx="255.99" cy="191.96" r="114.2"/>
<g>
	<path style="fill:#2D527C;" d="M256,320.219c-70.721,0-128.257-57.536-128.257-128.258S185.279,63.703,256,63.703
		c70.723,0,128.258,57.536,128.258,128.258S326.723,320.219,256,320.219z M256,91.812c-55.222,0-100.149,44.926-100.149,100.15
		S200.778,292.112,256,292.112s100.15-44.926,100.15-100.15S311.222,91.812,256,91.812z"/>
	<path style="fill:#2D527C;" d="M256,254.265c-7.762,0-14.054-6.292-14.054-14.054v-96.502c0-7.762,6.292-14.054,14.054-14.054
		s14.054,6.292,14.054,14.054v96.502C270.054,247.973,263.762,254.265,256,254.265z"/>
	<path style="fill:#2D527C;" d="M304.25,206.015h-96.5c-7.762,0-14.054-6.292-14.054-14.054s6.292-14.054,14.054-14.054h96.5
		c7.761,0,14.054,6.292,14.054,14.054C318.304,199.723,312.012,206.015,304.25,206.015z"/>
</g>
<g>
</g>
<g>
</g>
<g>
</g>
<g>
</g>
<g>
</g>
<g>
</g>
<g>
</g>
<g>
</g>
<g>
</g>
<g>
</g>
<g>
</g>
<g>
</g>
<g>
</g>
<g>
</g>
<g>
</g>
</svg>
