<?xml version="1.0" encoding="iso-8859-1"?>
<!-- Generator: Adobe Illustrator 19.0.0, SVG Export Plug-In . SVG Version: 6.00 Build 0)  -->
<svg version="1.1" id="Layer_1" xmlns="http://www.w3.org/2000/svg" xmlns:xlink="http://www.w3.org/1999/xlink" x="0px" y="0px"
	 viewBox="0 0 512 512" style="enable-background:new 0 0 512 512;" xml:space="preserve">
<g>
	<path style="fill:#2D527C;" d="M151.246,193.011c-8.298,0-15.024-6.726-15.024-15.024V48.392c0-10.116-8.229-18.344-18.344-18.344
		H56.734c-8.298,0-15.024-6.726-15.024-15.024S48.437,0,56.734,0h61.144c26.682,0,48.39,21.708,48.39,48.39v129.596
		C166.27,186.285,159.544,193.011,151.246,193.011z"/>
	<path style="fill:#2D527C;" d="M399.428,407.129c-8.296,0-15.024-6.726-15.024-15.024v-77.476c0-8.298,6.728-15.024,15.024-15.024
		s15.024,6.726,15.024,15.024v77.475C414.452,400.403,407.724,407.129,399.428,407.129z"/>
	<path style="fill:#2D527C;" d="M399.428,207.807c-8.296,0-15.024-6.726-15.024-15.024V151.95c0-10.114-8.23-18.343-18.344-18.343
		H151.67c-8.298,0-15.024-6.726-15.024-15.024s6.726-15.024,15.024-15.024h214.39c26.684,0,48.392,21.708,48.392,48.39v40.833
		C414.452,201.08,407.724,207.807,399.428,207.807z"/>
	<path style="fill:#2D527C;" d="M435.488,502.986c-38.027,0-68.962-30.937-68.962-68.962s30.937-68.962,68.962-68.962
		s68.962,30.937,68.962,68.962S473.516,502.986,435.488,502.986z M435.488,395.107c-21.457,0-38.915,17.458-38.915,38.915
		s17.458,38.915,38.915,38.915s38.915-17.458,38.915-38.915S456.945,395.107,435.488,395.107z"/>
</g>
<circle style="fill:#CEE8FA;" cx="151.25" cy="368.31" r="128.68"/>
<path style="fill:#2D527C;" d="M151.246,512C72.012,512,7.549,447.537,7.549,368.303S72.01,224.606,151.246,224.606
	s143.697,64.463,143.697,143.697S230.481,512,151.246,512z M151.246,254.654c-62.666,0-113.649,50.983-113.649,113.649
	S88.58,481.952,151.246,481.952s113.649-50.983,113.649-113.649S213.912,254.654,151.246,254.654z"/>
<path style="fill:#CEE8FA;" d="M195.676,247.51h213.849c18.458,0,33.56,15.102,33.56,33.56s-15.102,33.56-33.56,33.56h-141.31
	C253.993,283.684,227.857,259.35,195.676,247.51z"/>
<path style="fill:#2D527C;" d="M409.526,329.653h-141.31c-5.868,0-11.2-3.416-13.651-8.75
	c-12.555-27.319-35.91-48.931-64.075-59.295c-6.833-2.513-10.88-9.566-9.603-16.735c1.277-7.168,7.51-12.389,14.791-12.389h213.848
	c26.789,0,48.584,21.795,48.584,48.584S436.315,329.653,409.526,329.653z M277.471,299.605h132.053
	c10.221,0,18.536-8.316,18.536-18.536c0-10.221-8.316-18.536-18.536-18.536H248.426
	C260.013,273.184,269.878,285.711,277.471,299.605z"/>
<g>
</g>
<g>
</g>
<g>
</g>
<g>
</g>
<g>
</g>
<g>
</g>
<g>
</g>
<g>
</g>
<g>
</g>
<g>
</g>
<g>
</g>
<g>
</g>
<g>
</g>
<g>
</g>
<g>
</g>
</svg>
